<?xml version="1.0" encoding="UTF-8"?>
<svg width="80px" height="38px" viewBox="0 0 80 38" version="1.1" xmlns="http://www.w3.org/2000/svg" xmlns:xlink="http://www.w3.org/1999/xlink">
    <title>Icon/Logo/Pampers/White</title>
    <defs>
        <polygon id="path-1" points="0 0 2.5349311 0 2.5349311 2.4988196 0 2.4988196"></polygon>
    </defs>
    <g id="Icon/Logo/Pampers/White" stroke="none" stroke-width="1" fill="none" fill-rule="evenodd">
        <g id="Icon/Pamperslogo" transform="translate(0.000000, -0.000000)">
            <path d="M54.4932198,23.1365602 C53.0774235,23.3313752 52.8632231,25.4497762 52.8579302,26.0659844 L56.0358297,24.9974667 C56.0092572,24.5301225 55.713503,23.1365602 54.4932198,23.1365602 M49.5936161,28.1268939 C49.5936161,20.9556914 53.669364,20.3750581 54.6227338,20.3750581 C57.6822452,20.3750581 59.0542941,23.313376 59.0542941,25.3405104 C59.0542941,26.1942023 58.830156,26.6038432 57.4850037,27.1442429 L52.9342992,28.7259499 C52.9342992,30.1542401 53.4854087,30.3475728 54.1632238,30.3475728 C55.7244128,30.3475728 57.2362375,28.3872471 58.1103218,28.3872471 C58.5795535,28.3872471 59.0565625,29.1511547 59.0565625,29.6252751 C59.0565625,31.2455215 56.3671219,33.2606918 53.669364,33.2606918 C51.3575555,33.2606918 49.5936161,31.3435643 49.5936161,28.1268939" id="Fill-1" fill="#FFFFFF"></path>
            <path d="M76.3300122,30.9061623 C76.3300122,27.3340605 71.4346212,25.8134449 71.4346212,23.9868429 C71.4346212,23.5631203 71.7067194,23.0625305 72.3935,23.0625305 C74.0377551,23.0625305 73.5865625,25.0328087 74.8553459,25.0328087 C75.5369416,25.0328087 76.7109929,24.6916707 76.7109929,23.9817607 C76.7109929,21.658804 74.207884,20.2127264 72.3021165,20.2127264 C70.6885386,20.2127264 68.3636599,20.9725047 68.2644991,23.7290307 C68.1228871,27.8354973 72.9725863,29.0624081 72.9725863,30.6922894 C72.9725863,31.4849957 72.3154027,31.6186134 71.6898686,31.6186134 C69.7535319,31.6186134 68.8661612,29.4950243 67.9638841,29.4950243 C67.3591974,29.4950243 66.6705805,30.421666 66.6705805,31.3483076 C66.6705805,32.693272 69.1200043,34.5837184 71.9037449,34.5837184 C74.2170655,34.5837184 76.3300122,33.2482829 76.3300122,30.9061623" id="Fill-3" fill="#FFFFFF"></path>
            <path d="M24.4492483,33.2991678 C24.4492483,33.7956283 24.2161447,34.0221007 23.5218028,34.006219 C21.6574063,33.9574094 20.8226406,32.5315544 20.8226406,30.9444477 L20.8226406,22.3983174 C20.8226406,21.0599174 22.2070036,20.4217925 23.0483585,20.4091897 C23.7931449,20.4077107 24.0129622,20.8988774 24.0129622,21.8496591 L24.0129622,22.5352172 C24.9030333,21.394385 26.2576912,21.0200015 27.0932131,21.0200015 C28.9946598,21.0200015 30.0887776,22.0600381 30.3754582,22.7178563 C31.4620147,21.3256704 32.5371212,21.0200015 33.6097433,21.0200015 C37.4789601,21.0200015 37.578769,24.5557873 37.578769,25.4941813 L37.578769,32.8510933 C37.578769,33.4428438 37.2330023,33.5506273 36.3804136,33.5506273 C34.421069,33.5506273 33.9546458,32.3443627 33.9546458,30.6027804 L33.9508652,25.9421499 C33.9508652,25.1093159 33.7020989,24.3314324 32.7580187,24.3314324 C31.8383506,24.3314324 30.9719355,24.7476377 30.9719355,26.0489805 L30.9719355,32.0898327 C30.9719355,32.7749673 30.3520183,33.0307678 29.8029611,33.0307678 C27.7385146,33.0307678 27.4532382,31.4597545 27.4532382,30.4688451 L27.4532382,26.0083234 C27.4532382,24.8829494 27.0678288,24.3314324 26.132822,24.3314324 C25.1256591,24.3314324 24.4338016,25.0839052 24.4338016,26.1710575 C24.4338016,26.4596801 24.4492483,33.0902711 24.4492483,33.2991678" id="Fill-5" fill="#FFFFFF"></path>
            <path d="M13.4788412,30.899132 C12.7282218,30.899132 12.4853966,30.2785828 12.4853966,29.6253174 C12.4853966,27.6019946 15.1429717,27.1429089 16.2704671,27.1429089 C16.2997401,27.1429089 16.3280409,27.1441794 16.3565577,27.1441794 C16.3565577,30.1404124 14.4505742,30.899132 13.4788412,30.899132 M15.3217421,20.3794414 C13.3590489,20.3794414 13.1383674,21.3623041 13.1089865,21.8552707 C13.0797135,22.3540605 13.4332575,23.2316808 14.0716459,23.1897532 C14.1596808,23.1857298 14.4231375,23.1783184 14.461376,23.1783184 C15.3957346,23.1756715 16.4028976,23.3830859 16.3928519,24.3314324 C16.3928519,24.4904607 16.3776213,24.8525625 16.3776213,24.8525625 C16.3776213,24.8525625 8.95622152,24.6961811 8.95622152,29.6800562 C8.95622152,31.5660557 10.366833,33.6042014 12.6678396,33.6042014 C14.2104494,33.6042014 15.7252986,32.5361072 16.3280409,31.0957469 C16.2375215,31.3046436 16.2071684,31.7270957 16.2071684,31.9014762 C16.2071684,33.4207154 17.2488972,33.7018206 18.7578053,33.7018206 C19.3489897,33.7018206 19.4677018,33.3715881 19.4677018,32.7120759 L19.4677018,24.8256695 C19.3532024,21.0765402 17.0510076,20.3794414 15.3217421,20.3794414" id="Fill-7" fill="#FFFFFF"></path>
            <path d="M41.880178,25.8403696 C41.880178,24.2554864 42.2168711,23.3547848 43.5841672,23.242872 C44.6840099,23.158064 45.6958177,23.9263126 45.6958177,25.2137854 C45.6958177,28.0282264 44.4405366,29.8312178 41.880178,29.9995633 L41.880178,25.8403696 Z M43.3622976,20.1383261 C40.6284615,20.1515608 38.8325486,21.5016074 38.8325486,25.889391 L38.8325486,36.0250633 C38.8325486,37.2508094 39.141049,38 40.6634594,38 C41.5156161,38 41.8668917,37.902169 41.8668917,37.3738393 L41.8668917,32.9033651 C42.9122932,32.7393606 48.7127698,31.9450661 48.7127698,25.0272289 C48.7127698,23.3470557 47.6905923,20.1383261 43.3622976,20.1383261 L43.3622976,20.1383261 Z" id="Fill-9" fill="#FFFFFF"></path>
            <path d="M6.75427854,14.4347368 C7.97412961,14.4347368 9.40828906,15.2353839 9.40828906,17.7392857 C9.40828906,20.5656909 7.62263794,22.564556 3.94558576,23.3226403 C3.78042573,22.0726482 3.70168036,20.8690305 3.70168036,19.7993481 C3.70168036,16.1695429 4.81016453,14.4347368 6.75427854,14.4347368 M0,19.5015141 C0,24.204178 0.814134199,30.702316 1.13818921,32.5770924 C1.43243116,34.2707121 1.755514,35.196295 3.69098654,35.196295 C4.7740864,35.196295 5.22743936,35.075065 5.22743936,34.4022122 L4.22556929,26.5670507 C5.55300662,26.3542365 12.9396245,25.3848203 12.9396245,17.0888789 C12.9396245,14.6371749 11.5807538,10.9614188 7.0167631,10.9614188 C3.40722238,10.9614188 0,13.1524519 0,19.5015141" id="Fill-11" fill="#FFFFFF"></path>
            <path d="M63.5397555,22.3784653 C63.5397555,21.7471166 63.5298178,21.357169 63.5298178,21.357169 C63.5298178,20.7890293 63.1497013,20.5024183 62.5013752,20.5075372 C61.604499,20.5223234 60.3645565,21.0953335 60.3645565,22.3947705 L60.3645565,31.2800271 C60.3645565,33.0584548 60.9986241,33.7160612 62.9226467,33.7160612 C62.9226467,33.7160612 63.8866024,33.628818 63.8866024,33.104194 C63.8866024,32.5770289 63.8720199,26.0074235 63.8720199,25.9850833 C63.8720199,24.7908887 65.7187013,23.9459847 66.989321,23.5036276 C67.4104845,23.3628103 67.5740243,22.9624867 67.5740243,22.6166901 C67.5740243,21.8041847 67.3591758,20.7133267 66.4248172,20.7133267 C65.8914227,20.7133267 64.9374047,20.9421284 63.5397555,22.3784653" id="Fill-13" fill="#FFFFFF"></path>
            <path d="M48.7674055,18.5519711 C46.496428,18.5519711 40.0040939,12.8877259 40.0040939,9.67994923 C40.0040939,8.14991059 41.0682905,7.71189454 41.9528527,7.71189454 C42.9601237,7.71189454 45.3344747,9.0633175 45.3344747,9.0633175 C45.3344747,9.0633175 45.6889909,15.1297921 48.093047,15.1297921 C48.9459598,15.1297921 50.5474396,13.752535 50.5474396,12.6460071 C50.5474396,10.8233225 49.1022623,9.38878555 47.439212,8.00559928 C47.5181734,7.30638295 47.9879452,6.05713196 48.7606003,5.09967992 C49.4587228,4.2332827 50.4332642,3.54444238 51.6479304,3.52750195 C52.8435854,3.50717343 53.6387084,4.76245945 53.6670092,6.7691595 C53.7397055,11.5948533 50.8248307,18.5213725 48.7674055,18.5519711 M49.124298,12.7086867 C49.124298,12.9031841 49.053438,13.0498247 48.8759639,13.0498247 C47.4183645,13.0498247 47.2632501,10.2368659 47.2632501,10.2368659 C48.4095407,10.8580504 49.124298,11.7228595 49.124298,12.7086867 M51.957403,0.000609882559 C50.0048635,0.027291063 48.0446548,1.70068811 46.8196188,3.76138579 C46.2554391,4.720426 45.8511264,5.75633342 45.6751646,6.75031327 C43.8143327,5.61276326 41.8024912,4.91195876 40.4853156,4.91195876 C36.8928418,4.91195876 36.2777854,7.59278213 36.2777854,9.0633175 C36.2777854,14.5052195 46.6878365,20.54406 49.8666001,20.54406 C52.4305233,20.5074264 57.2252412,12.8083176 57.1262964,6.39710526 C57.0878419,3.76837372 55.6097189,-0.05497591 51.957403,0.000609882559" id="Fill-15" fill="#FFDD00"></path>
            <path d="M47.2631637,10.2368553 C48.1383283,10.7110816 48.7605139,11.3273957 49.0066877,12.030953 C49.0830566,12.2491669 49.1242116,12.4754276 49.1242116,12.7086761 C49.1242116,12.7664854 49.1171904,12.8191066 49.1036882,12.8659045 C49.0719308,12.9765467 49.0007467,13.04992 48.8759855,13.04992 C47.4183861,13.04992 47.2631637,10.2368553 47.2631637,10.2368553 M48.7674271,18.5519605 C46.4963416,18.5519605 40.0041155,12.8877153 40.0041155,9.67993864 C40.0041155,8.1499 41.0682041,7.71188395 41.9528743,7.71188395 C42.9601453,7.71188395 45.3344963,9.06330692 45.3344963,9.06330692 C45.3344963,9.06330692 45.6890125,15.1297815 48.0930686,15.1297815 C48.9459814,15.1297815 50.5473532,13.7525244 50.5473532,12.6459965 C50.5473532,10.8233119 49.1021759,9.38877497 47.4392336,8.00558869 C47.518087,7.30637236 47.9879668,6.05712138 48.7605139,5.09966933 C49.4587444,4.23327211 50.4332859,3.5444318 51.647952,3.52749136 C52.843607,3.50716285 53.638622,4.76244886 53.6670308,6.76914891 C53.7397271,11.5948427 50.8248523,18.5213619 48.7674271,18.5519605 M57.126318,6.39709467 C57.0878635,3.76836313 55.6097406,-0.0549864978 51.9574246,0.000599294788 C50.0048851,0.0272804752 48.0445684,1.70067753 46.8196404,3.7613752 C46.2554607,4.72041541 45.851148,5.75632283 45.6751862,6.75030268 C43.8143543,5.61275267 41.8025128,4.91194817 40.4853372,4.91194817 C36.8928634,4.91194817 36.277807,7.59277154 36.277807,9.06330692 C36.277807,14.5052089 46.6878581,20.5440495 49.8666217,20.5440495 C52.4305449,20.5074158 57.2252628,12.808307 57.126318,6.39709467" id="Fill-17" fill="#FFDD00"></path>
            <g id="Group-21" transform="translate(77.465069, 32.108097)">
                <mask id="mask-2" fill="white">
                    <use xlink:href="#path-1"></use>
                </mask>
                <g id="Clip-20"></g>
                <path d="M1.34039953,1.20658227 C1.48600825,1.20658227 1.56615786,1.13500895 1.56615786,1.02807247 C1.56615786,0.913724552 1.47877102,0.849456788 1.34039953,0.849456788 L1.0633325,0.849456788 L1.0633325,1.20658227 L1.34039953,1.20658227 Z M0.742950116,0.742308556 C0.742950116,0.649665568 0.815754474,0.578092243 0.903357345,0.578092243 L1.36211122,0.578092243 C1.67536439,0.578092243 1.89388549,0.721027138 1.89388549,1.0065793 C1.89388549,1.19938259 1.7920242,1.33501192 1.63161697,1.39927969 L1.82842638,1.63485757 C1.86472054,1.67064423 1.87195776,1.70643089 1.87195776,1.74899373 C1.87195776,1.83486054 1.80628262,1.89912831 1.71176657,1.89912831 C1.65354469,1.89912831 1.61725053,1.87054133 1.58074033,1.83486054 L1.2748324,1.46344157 L1.0633325,1.46344157 L1.0633325,1.7420058 C1.0633325,1.82776674 0.99063616,1.89912831 0.903357345,1.89912831 C0.815754474,1.89912831 0.742950116,1.82776674 0.742950116,1.7420058 L0.742950116,0.742308556 Z M2.28447979,1.24935686 L2.28447979,1.2430042 C2.28447979,0.692651914 1.84873382,0.23938948 1.26737914,0.23938948 C0.692829608,0.23938948 0.250386503,0.699110454 0.250386503,1.24935686 L0.250386503,1.2558154 C0.250386503,1.80606181 0.686132471,2.25932424 1.26737914,2.25932424 C1.84203669,2.25932424 2.28447979,1.79970915 2.28447979,1.24935686 L2.28447979,1.24935686 Z M0,1.25645067 L0,1.24935686 C0,0.571104315 0.560831201,0 1.26737914,0 C1.98138034,0 2.53497431,0.563904631 2.53497431,1.24215718 L2.53497431,1.24935686 C2.53497431,1.92771529 1.97403509,2.4988196 1.26737914,2.4988196 C0.553593973,2.4988196 0,1.93470321 0,1.25645067 L0,1.25645067 Z" id="Fill-19" fill="#FFFFFF" mask="url(#mask-2)"></path>
            </g>
        </g>
    </g>
</svg>